<?xml version="1.0" standalone="no"?>
<!DOCTYPE svg PUBLIC "-//W3C//DTD SVG 20010904//EN"
 "http://www.w3.org/TR/2001/REC-SVG-20010904/DTD/svg10.dtd">
<svg version="1.0" xmlns="http://www.w3.org/2000/svg"
 width="350.000000pt" height="350.000000pt" viewBox="0 0 350.000000 350.000000"
 preserveAspectRatio="xMidYMid meet">
<metadata>
Created by potrace 1.14, written by Peter Selinger 2001-2017
</metadata>
<g transform="translate(0.000000,350.000000) scale(0.100000,-0.100000)"
fill="#000000" stroke="none">
<path d="M2245 2951 c-61 -22 -85 -34 -85 -44 0 -6 -3 -8 -6 -4 -6 5 -36 -17
-80 -59 -13 -12 -26 -19 -30 -15 -4 3 -4 1 0 -6 3 -6 2 -15 -4 -18 -17 -10
-60 -83 -60 -100 0 -8 -4 -15 -10 -15 -5 0 -10 -9 -10 -19 0 -11 -5 -23 -10
-26 -6 -4 -17 -21 -24 -38 -8 -18 -26 -44 -40 -59 -15 -16 -24 -28 -21 -28 3
0 -4 -10 -17 -22 -13 -13 -39 -43 -58 -68 -19 -25 -51 -61 -70 -82 -55 -58
-79 -88 -72 -88 4 0 0 -5 -8 -10 -12 -7 -12 -13 -4 -27 9 -14 26 -18 87 -20
74 -2 144 -22 105 -31 -10 -2 -18 -8 -18 -12 0 -6 -11 -6 -25 0 -18 7 -25 6
-25 -3 0 -9 -2 -9 -8 -1 -4 7 -25 12 -47 13 -22 1 -56 3 -75 5 -19 1 -41 -2
-47 -7 -7 -5 -13 -6 -13 -2 0 4 -7 2 -15 -5 -8 -7 -15 -10 -15 -7 0 11 -67
-60 -73 -77 -4 -9 -11 -16 -17 -16 -6 0 -8 -4 -5 -10 3 -5 2 -10 -3 -10 -9 0
-10 -3 -16 -70 -4 -48 16 -97 43 -102 8 -2 -6 -14 -32 -27 -26 -13 -47 -28
-47 -33 0 -4 -5 -8 -11 -8 -12 0 -69 -60 -69 -72 0 -5 -7 -8 -16 -8 -8 0 -13
-4 -9 -9 3 -5 1 -12 -5 -16 -6 -4 -8 -11 -5 -16 4 -5 2 -9 -4 -9 -6 0 -14 -15
-20 -32 -5 -18 -17 -53 -26 -77 -16 -43 -21 -132 -11 -181 3 -13 8 -40 10 -60
16 -112 22 -152 26 -157 3 -3 4 -7 13 -55 5 -21 12 -38 18 -38 6 0 8 -4 4 -9
-3 -5 2 -17 11 -25 8 -9 12 -16 8 -16 -4 0 7 -16 26 -35 36 -37 95 -70 109
-60 5 3 12 1 15 -4 4 -5 16 -8 29 -5 12 2 33 6 46 9 36 7 98 51 106 74 6 20 7
20 43 3 20 -10 49 -18 65 -17 15 0 27 -4 27 -10 0 -5 4 -4 9 3 11 18 17 17 42
-6 19 -18 34 -20 88 -8 39 9 89 68 83 99 -4 16 17 6 23 -12 3 -10 21 -26 40
-37 l35 -18 -33 -21 c-17 -11 -32 -18 -32 -15 0 6 -50 -37 -85 -72 -34 -35
-74 -113 -66 -127 4 -6 2 -11 -5 -11 -16 0 -5 -119 14 -157 19 -36 72 -83 94
-83 9 0 14 -3 10 -6 -10 -10 15 -64 35 -75 48 -26 84 -18 124 28 l21 24 24
-35 c21 -32 37 -41 62 -37 4 0 7 -4 7 -10 0 -8 5 -8 15 1 8 7 15 10 15 6 0 -4
11 1 25 10 14 9 25 22 25 30 0 7 10 16 23 18 56 12 103 19 110 18 4 -1 7 1 7
5 0 5 25 21 55 38 l54 29 24 -22 c13 -13 36 -22 54 -22 33 0 87 36 77 51 -8
13 23 23 44 13 9 -4 20 -8 25 -9 4 -2 8 -3 10 -5 11 -9 51 -4 67 10 25 21 43
67 30 75 -16 10 -11 41 10 68 18 23 57 118 57 139 1 54 -34 137 -51 121 -4 -4
-12 -8 -19 -9 -7 -2 -25 -6 -42 -10 -16 -4 -51 -8 -77 -8 -27 -1 -48 -3 -48
-6 0 -3 -63 -6 -140 -6 -77 -1 -140 2 -140 5 0 3 -12 7 -26 7 -33 2 -40 10
-24 29 8 10 17 12 28 6 10 -6 23 -6 33 0 10 5 93 11 186 13 92 2 179 8 193 14
14 5 27 10 30 10 42 4 104 64 112 107 1 11 7 23 11 26 4 3 9 17 11 30 1 14 5
29 7 34 3 6 5 39 4 75 -2 65 -16 110 -35 110 -6 0 -10 7 -10 15 0 8 4 15 9 15
5 0 22 5 38 12 15 6 30 12 33 12 35 7 106 55 124 85 32 50 20 122 -32 182 -10
11 -17 23 -18 27 0 4 -4 14 -7 22 -11 25 -13 150 -2 154 6 3 4 5 -4 5 -11 1
-11 4 -1 16 9 10 9 15 1 15 -6 0 -10 3 -9 8 3 14 -14 62 -23 62 -5 0 -9 5 -9
10 0 10 -22 43 -60 93 -8 11 -26 29 -39 41 -48 42 -101 97 -99 104 2 11 -25
66 -37 74 -5 4 -6 8 -2 8 5 0 -1 16 -13 35 -12 19 -19 35 -16 35 3 0 -2 9 -11
19 -30 33 -43 50 -43 56 0 3 -27 46 -60 95 -33 50 -58 90 -55 90 4 0 0 12 -9
28 -8 15 -21 43 -30 62 -22 52 -77 104 -143 136 -31 16 -64 30 -73 31 -39 8
-137 10 -155 4z m-115 -391 c0 -25 -17 -35 -35 -20 -11 9 -12 17 -5 31 12 22
40 14 40 -11z m704 -302 c15 -18 35 -45 44 -60 9 -16 20 -28 24 -28 4 0 8 -7
8 -15 0 -8 5 -15 10 -15 6 0 10 -4 10 -10 0 -5 6 -18 14 -27 41 -51 86 -114
86 -122 0 -5 3 -11 8 -13 4 -1 19 -19 34 -39 22 -30 25 -39 14 -48 -9 -8 -18
-5 -34 14 -12 14 -20 25 -17 25 3 0 -5 12 -18 26 -12 14 -21 27 -19 30 1 2 -6
12 -15 22 -31 33 -53 62 -53 71 0 4 -9 16 -20 26 -11 10 -18 20 -16 22 2 3 -3
13 -12 22 -37 39 -61 75 -55 84 3 6 2 7 -4 4 -8 -5 -18 7 -41 56 -10 21 29 3
52 -25z m-1127 -22 c-18 -20 -38 3 -25 28 10 19 11 19 24 2 10 -14 10 -21 1
-30z m1078 -3 c9 -16 25 -41 35 -58 11 -16 23 -38 26 -47 4 -10 10 -18 15 -18
5 0 9 -7 9 -15 0 -7 6 -18 14 -22 8 -4 15 -12 15 -16 -1 -11 93 -161 103 -165
4 -2 6 -8 2 -13 -3 -5 0 -9 5 -9 6 0 11 -6 11 -13 0 -8 9 -24 20 -37 20 -23
27 -60 12 -60 -5 0 -17 9 -27 20 -10 11 -14 20 -9 20 5 0 4 4 -2 8 -6 4 -28
36 -50 72 -21 36 -43 68 -49 72 -5 4 -7 8 -3 8 4 0 1 8 -7 18 -8 9 -14 19 -13
22 2 3 -6 16 -18 28 -11 12 -27 35 -35 50 -14 27 -24 43 -73 119 -26 39 -28
63 -6 63 5 0 16 -12 25 -27z m-15 -90 c0 -13 5 -23 10 -23 6 0 10 -4 10 -10 0
-5 13 -31 29 -59 16 -27 27 -52 24 -55 -4 -3 0 -6 7 -6 7 0 10 -3 7 -6 -4 -4
2 -19 11 -33 20 -30 122 -226 122 -235 0 -3 -8 -6 -17 -6 -12 0 -29 24 -53 73
-19 39 -37 74 -40 77 -3 3 -21 37 -40 75 -19 39 -37 72 -40 75 -9 8 -71 134
-70 143 0 4 -6 15 -15 23 -16 16 -20 36 -9 47 11 11 64 -56 64 -80z m-716 30
c4 -9 3 -19 -2 -22 -5 -3 -12 -17 -16 -31 -9 -30 -17 -52 -41 -105 -10 -22
-18 -44 -17 -48 1 -4 -3 -18 -10 -30 -7 -12 -13 -31 -15 -42 -3 -19 -20 -35
-37 -35 -4 0 -5 10 -2 23 15 47 8 30 52 144 13 34 24 64 24 66 0 3 9 26 20 51
20 48 34 57 44 29z m66 -20 c-4 -16 -15 -48 -25 -73 -9 -25 -21 -62 -27 -82
-6 -21 -16 -38 -22 -38 -6 0 -4 -5 4 -10 11 -7 11 -10 2 -10 -7 0 -10 -4 -7
-10 3 -5 1 -10 -4 -10 -6 0 -11 -11 -11 -25 0 -14 -2 -25 -4 -25 -2 0 -11 -3
-20 -6 -20 -8 -22 26 -4 59 6 12 12 30 13 40 1 11 6 22 11 25 9 7 11 15 20 56
2 10 9 25 16 34 11 13 11 14 -1 8 -8 -6 -7 0 4 18 10 14 14 26 11 26 -4 0 1
11 10 25 23 35 45 33 34 -2z m63 -4 c3 -13 0 -22 -10 -26 -12 -5 -12 -7 -1
-14 8 -6 9 -9 1 -9 -6 0 -10 -8 -8 -17 1 -10 -1 -22 -5 -28 -7 -9 -27 -75 -50
-164 -10 -40 -32 -58 -41 -33 -3 9 -2 24 2 32 8 14 28 87 29 103 0 4 6 22 14
41 8 19 12 37 8 40 -3 3 -1 6 4 6 5 0 10 8 11 18 3 38 8 57 18 64 16 12 22 9
28 -13z m51 -17 c-3 -15 -5 -34 -5 -42 0 -8 -3 -22 -7 -30 -3 -8 -6 -24 -7
-35 -1 -11 -5 -30 -9 -42 -4 -12 -9 -32 -12 -45 -3 -13 -8 -34 -11 -48 -3 -14
-6 -33 -7 -42 0 -10 -4 -18 -8 -18 -4 0 -7 -5 -5 -12 1 -6 -6 -13 -15 -16 -18
-3 -18 -1 -3 68 18 85 23 105 25 105 1 0 3 13 5 30 2 16 10 52 17 80 15 60 15
62 17 75 0 5 7 7 15 4 9 -3 13 -15 10 -32z m459 18 c3 -11 6 -23 6 -25 0 -3 8
-20 18 -38 9 -17 16 -36 15 -41 -2 -5 1 -12 5 -15 10 -7 75 -161 76 -178 0 -7
4 -13 9 -13 4 0 8 -9 8 -19 0 -11 5 -23 10 -26 6 -4 8 -11 5 -16 -4 -5 -1 -9
4 -9 6 0 11 -6 11 -12 0 -7 7 -26 15 -42 19 -35 11 -73 -11 -55 -7 6 -11 15
-8 20 3 5 1 9 -5 9 -5 0 -12 14 -16 30 -4 17 -11 30 -16 30 -6 0 -8 4 -5 8 3
5 -2 21 -10 36 -7 16 -14 35 -14 42 0 8 -4 14 -8 14 -5 0 -9 6 -9 13 0 6 -10
34 -23 61 -13 26 -23 55 -23 62 0 8 -3 14 -7 14 -3 0 -17 29 -29 65 -13 36
-26 65 -30 65 -4 0 -7 9 -8 20 -2 27 33 27 40 0z m-388 -48 c-3 -15 -8 -43
-11 -62 -3 -19 -8 -42 -11 -50 -3 -8 -7 -28 -9 -45 -2 -16 -6 -40 -9 -52 -3
-13 -6 -26 -6 -30 0 -5 -7 -23 -14 -40 -8 -18 -10 -33 -5 -33 4 0 3 -13 -3
-30 -6 -16 -18 -30 -25 -30 -14 0 -13 28 3 100 14 67 18 87 18 108 1 12 4 22
9 22 4 0 5 7 2 15 -4 8 -2 15 2 15 5 0 9 10 10 23 0 12 4 37 8 55 4 19 8 39 9
45 3 16 19 27 29 21 5 -3 6 -17 3 -32z m334 5 c7 -13 13 -29 15 -37 2 -8 6
-22 9 -30 15 -39 31 -96 29 -102 -1 -5 3 -8 8 -8 6 0 10 -10 10 -23 0 -13 6
-29 13 -36 10 -11 9 -12 -2 -6 -9 5 -7 -1 4 -19 10 -14 14 -26 10 -26 -4 0 -2
-6 4 -14 6 -7 12 -25 13 -40 1 -14 6 -26 10 -26 4 0 7 -3 6 -7 0 -5 2 -15 5
-23 14 -36 25 -90 17 -90 -15 0 -40 31 -40 50 0 10 -5 22 -11 25 -6 4 -8 13
-5 20 2 7 -1 18 -7 24 -6 6 -7 11 -3 11 5 0 4 6 -1 13 -5 6 -20 46 -33 87 -14
41 -27 77 -31 80 -3 3 -5 13 -3 23 1 9 -4 24 -13 32 -11 12 -11 15 -1 15 10 0
10 2 0 8 -7 5 -14 19 -17 31 -2 13 -9 29 -16 37 -9 11 -9 14 1 14 9 0 10 3 1
13 -10 13 -6 27 9 27 4 0 12 -10 19 -23z m-271 -52 c-3 -24 -7 -47 -10 -51 -4
-3 -4 -12 -1 -20 3 -8 1 -14 -3 -14 -5 0 -10 -17 -11 -38 -1 -32 -5 -57 -18
-122 -2 -8 -4 -15 -5 -15 -1 0 -3 -13 -5 -30 -9 -73 -16 -95 -31 -95 -13 0
-14 9 -9 48 7 52 12 84 20 122 3 14 8 45 12 70 7 52 11 75 13 75 3 0 12 55 13
80 1 20 14 35 30 35 5 0 7 -20 5 -45z m236 -15 c2 -14 10 -47 16 -75 7 -27 13
-58 14 -67 1 -10 5 -21 9 -24 4 -4 1 -14 -6 -22 -6 -9 -7 -13 -2 -10 14 8 65
-207 54 -224 -12 -18 -31 4 -36 39 -4 32 -11 68 -13 68 -1 0 -3 7 -5 15 -27
121 -45 209 -48 225 -1 11 -6 26 -11 33 -4 7 -5 16 -2 19 3 3 1 14 -4 24 -6 9
-7 25 -4 34 6 14 9 14 20 3 7 -7 15 -24 18 -38z m-170 -23 c-2 -12 -5 -43 -6
-69 -2 -27 -5 -48 -8 -48 -3 0 -5 -12 -4 -27 1 -16 -1 -32 -4 -38 -3 -5 -7
-23 -8 -40 -1 -27 -11 -115 -17 -155 -4 -23 -17 -41 -27 -35 -5 3 -7 31 -3 63
3 31 6 69 7 85 0 15 4 27 7 27 3 0 5 10 4 22 -1 12 2 40 6 63 4 22 10 65 14
95 6 51 10 80 14 105 1 6 8 2 16 -8 7 -10 12 -28 9 -40z m61 -99 c-3 -79 -8
-188 -10 -242 -4 -89 -15 -130 -30 -114 -8 7 -13 78 -6 78 3 0 6 44 5 98 0 53
2 101 4 106 9 17 8 86 -1 86 -6 0 -5 5 0 13 5 6 9 32 9 57 -1 40 6 54 32 59 2
1 1 -63 -3 -141z m51 129 c4 -4 8 -20 9 -35 1 -15 5 -33 9 -40 4 -7 2 -12 -4
-12 -7 0 -8 -6 -2 -17 8 -17 14 -75 16 -170 1 -24 4 -43 7 -43 3 0 5 -15 4
-32 0 -18 2 -50 6 -70 8 -46 -6 -72 -23 -43 -11 19 -16 52 -21 152 -1 29 -6
53 -10 53 -4 0 -3 9 3 20 6 11 7 20 1 20 -5 0 -9 19 -9 43 0 23 -3 60 -6 82
-12 96 -12 103 1 101 7 -1 16 -5 19 -9z m-918 -236 c23 -7 42 -16 42 -21 0 -5
9 -12 20 -15 11 -4 18 -11 15 -16 -4 -5 -2 -9 2 -9 9 0 43 -53 44 -67 1 -5 5
-14 11 -20 8 -9 7 -13 -3 -13 -9 0 -10 -3 -3 -8 10 -7 11 -79 1 -112 -2 -8 -8
-30 -12 -48 -4 -18 -12 -35 -16 -38 -5 -3 -9 -14 -9 -25 0 -10 -3 -19 -7 -19
-5 0 -17 -18 -27 -40 -11 -22 -22 -40 -26 -40 -9 0 -31 -47 -37 -80 -3 -14 -6
-69 -7 -122 -2 -84 -5 -100 -22 -117 -49 -45 -115 -59 -171 -35 -18 7 -33 11
-33 8 0 -2 -9 5 -20 16 -11 11 -20 25 -20 30 0 6 -4 10 -8 10 -14 0 -73 158
-61 166 5 3 9 1 9 -5 0 -6 12 -17 27 -24 55 -29 112 42 74 92 -27 34 -67 34
-99 0 l-27 -29 -2 48 c-1 26 -4 65 -8 87 -18 108 -9 175 36 270 26 56 99 151
99 130 0 -5 7 1 16 13 8 12 22 22 30 22 8 0 14 5 14 11 0 5 4 8 9 4 5 -3 12
-1 15 3 7 12 101 7 154 -7z m258 -220 c30 -30 54 -61 54 -68 0 -7 5 -13 12
-13 6 0 9 -3 5 -6 -3 -4 1 -13 9 -21 8 -8 12 -19 9 -24 -4 -5 -2 -9 3 -9 16 0
31 -93 28 -175 -3 -77 -28 -187 -48 -212 -6 -7 -7 -13 -4 -13 21 0 -46 -52
-72 -56 -52 -8 -58 7 -56 131 2 63 -3 137 -10 173 -8 34 -12 62 -10 62 3 0 -3
11 -12 25 -9 14 -14 25 -10 25 3 0 1 12 -4 26 -6 16 -7 32 -1 43 13 23 30 151
20 151 -4 0 -5 9 -2 19 6 24 12 20 89 -58z m-120 -225 c1 -10 8 -41 15 -69 6
-28 11 -89 11 -136 -1 -150 3 -139 -46 -137 -23 1 -54 9 -69 19 -27 17 -27 18
-22 110 6 114 6 117 17 117 5 0 6 5 3 10 -3 6 -2 10 2 10 5 0 22 22 38 50 30
50 46 58 51 26z m-398 -143 c3 -17 -2 -23 -15 -23 -28 0 -44 15 -37 34 10 25
48 16 52 -11z m848 -281 c5 -5 35 -19 67 -32 31 -12 57 -26 57 -31 0 -5 5 -9
11 -9 20 0 58 -36 50 -48 -5 -8 -16 -3 -34 14 -15 14 -27 22 -27 19 0 -4 -13
3 -30 15 -16 12 -30 19 -30 15 0 -3 -10 1 -22 9 -12 9 -29 16 -38 16 -23 0
-43 16 -36 29 9 13 19 14 32 3z m-82 -47 c10 -8 23 -12 27 -9 5 3 9 0 9 -6 0
-6 5 -8 10 -5 6 3 10 1 10 -5 0 -6 5 -8 10 -5 6 3 10 1 10 -4 0 -6 7 -11 15
-11 8 0 24 -9 34 -19 11 -11 21 -17 24 -15 2 3 7 -4 10 -15 6 -23 -12 -19 -58
14 -35 25 -105 58 -122 58 -7 0 -13 4 -13 9 0 4 -7 8 -15 8 -8 0 -15 5 -15 10
0 15 42 12 64 -5z m-4 -71 c14 -3 30 -6 35 -7 6 -2 19 -8 30 -14 18 -11 18
-14 5 -27 -12 -11 -26 -12 -70 -5 -55 9 -83 29 -74 54 5 13 16 13 74 -1z m415
-24 c2 -12 9 -28 14 -34 6 -7 13 -38 16 -69 4 -45 2 -57 -8 -57 -9 0 -14 9
-13 23 1 12 0 26 -3 32 -3 5 -6 16 -7 25 -3 19 -12 54 -14 58 -2 1 -3 5 -4 10
-1 4 -5 12 -9 19 -4 6 -1 13 5 16 16 6 18 4 23 -23z m-79 -77 c-3 -3 0 -17 5
-32 15 -39 28 -113 22 -128 -8 -21 -20 -15 -22 12 -1 14 -2 36 -3 50 -1 14 -6
25 -12 25 -5 0 -7 3 -3 6 3 4 0 19 -8 35 -20 38 -19 48 5 42 12 -3 19 -8 16
-10z m424 -94 c0 -15 -22 -33 -42 -37 -11 -2 -18 3 -18 13 0 8 6 15 14 15 8 0
17 7 20 16 6 16 26 11 26 -7z m-194 -75 c-9 -6 -26 -10 -36 -7 -29 8 -16 19
21 19 27 0 29 -1 15 -12z m-599 -77 c6 0 9 -6 6 -14 -4 -11 -63 -20 -63 -9 0
2 -3 11 -6 20 -5 12 0 14 23 9 15 -3 33 -6 40 -6z m213 -17 c0 -3 -8 -10 -19
-17 -22 -14 -57 -7 -65 13 -4 10 5 13 39 11 25 -1 45 -4 45 -7z"/>
<path d="M1422 1743 c-16 -8 -34 -25 -41 -39 -7 -15 -7 -23 -1 -19 5 3 10 -2
10 -12 0 -32 16 -45 62 -49 33 -3 50 1 65 14 65 56 -15 144 -95 105z m80 -46
c12 -19 -10 -45 -35 -43 -46 5 -60 29 -35 54 14 14 59 7 70 -11z"/>
<path d="M1598 1692 c-13 -8 -24 -16 -25 -16 -1 -1 -4 -15 -7 -32 -8 -44 22
-74 76 -74 48 0 78 27 78 70 0 50 -77 82 -122 52z m78 -36 c13 -13 10 -45 -5
-47 -3 0 -14 -2 -23 -4 -27 -5 -58 27 -47 48 12 21 55 22 75 3z"/>
<path d="M1330 1609 c0 -5 -7 -9 -15 -9 -8 0 -15 -5 -15 -11 0 -5 -6 -7 -12
-3 -7 4 -10 4 -6 -1 4 -4 3 -15 -2 -25 -9 -16 20 -79 37 -81 5 0 19 -2 31 -5
25 -4 81 23 83 41 0 5 2 20 3 32 2 13 -7 32 -19 43 -23 21 -85 35 -85 19z m56
-66 c2 -38 -49 -41 -59 -3 -5 21 7 30 38 27 13 -1 20 -10 21 -24z"/>
<path d="M1521 1564 c-1 -6 -12 -17 -26 -24 -51 -27 -20 -110 44 -115 17 -1
31 1 31 6 0 5 5 8 11 7 7 -2 21 12 32 30 l20 33 -29 30 c-21 22 -35 28 -51 25
-12 -4 -23 -1 -26 7 -3 6 -6 7 -6 1z m63 -86 c-14 -23 -49 -25 -66 -5 -20 22
-16 35 16 47 16 6 25 3 38 -12 10 -11 15 -24 12 -30z"/>
<path d="M1457 1282 c-45 -28 -42 -82 6 -106 28 -13 34 -13 58 1 48 29 44 86
-7 108 -26 11 -35 10 -57 -3z m53 -33 c0 -4 3 -14 6 -22 6 -16 -27 -29 -46
-17 -19 12 -2 49 20 47 11 -1 20 -4 20 -8z"/>
<path d="M1361 1135 c-14 -7 -28 -21 -32 -31 -7 -22 9 -64 25 -65 6 0 19 -2
29 -4 30 -6 59 30 51 63 -7 28 -23 44 -35 36 -4 -2 -9 0 -11 5 -2 5 -14 4 -27
-4z m37 -65 c-2 -8 -12 -4 -28 10 -14 12 -19 19 -12 15 6 -3 12 0 12 7 0 8 5
7 16 -4 9 -9 15 -21 12 -28z"/>
<path d="M1498 1142 c-16 -2 -28 -7 -28 -12 0 -5 -6 -15 -14 -23 -13 -12 -12
-18 4 -44 18 -31 66 -49 74 -29 3 7 5 6 5 -2 1 -7 12 0 25 15 14 16 21 32 16
38 -8 10 -10 16 -10 33 0 14 -43 28 -72 24z m46 -49 c7 -17 -26 -34 -43 -23
-8 4 -11 15 -8 23 7 19 44 18 51 0z"/>
<path d="M515 2660 c-11 -4 -23 -6 -27 -3 -5 2 -8 0 -8 -6 0 -5 -9 -8 -20 -6
-11 2 -20 0 -20 -6 0 -5 -4 -9 -10 -9 -21 0 -133 -104 -123 -114 4 -3 2 -6 -4
-6 -6 0 -20 -24 -32 -53 -89 -218 65 -461 297 -471 107 -4 188 26 264 97 26
24 95 137 84 137 -3 0 -1 12 5 27 10 27 13 112 5 148 -19 87 -71 163 -146 216
-19 13 -37 24 -40 25 -3 0 -12 3 -20 6 -67 26 -161 34 -205 18z m160 -20 c-3
-5 0 -10 8 -10 18 0 80 -30 89 -44 4 -6 8 -7 8 -3 0 4 11 -3 23 -17 13 -14 27
-23 30 -21 4 3 5 2 2 -2 -3 -3 0 -12 5 -19 13 -14 -32 -54 -61 -54 -41 0 -108
46 -118 80 -12 43 -12 72 -1 85 14 17 24 20 15 5z m-200 -36 c16 -25 16 -29 0
-70 -9 -24 -20 -44 -23 -45 -4 0 -14 -2 -22 -4 -59 -12 -77 -9 -90 15 -9 17
-6 25 18 47 16 16 39 35 52 43 12 8 28 20 34 27 6 7 12 12 12 13 1 0 9 -12 19
-26z m166 -54 c6 0 8 -4 4 -9 -3 -5 1 -15 8 -23 16 -17 15 -26 -6 -64 -16 -30
-19 -32 -73 -30 -36 1 -59 6 -62 14 -2 6 -8 10 -13 6 -5 -3 -10 2 -10 10 -1 9
-2 22 -3 29 -1 6 3 24 10 38 7 15 10 29 7 33 -4 3 0 6 8 7 51 3 104 10 108 15
3 3 7 -1 9 -10 2 -9 8 -16 13 -16z m94 -90 c38 -9 56 -22 51 -35 -3 -8 -2 -15
3 -15 4 0 8 -6 9 -12 1 -7 3 -26 6 -41 3 -20 0 -30 -12 -34 -9 -4 -21 -12 -25
-20 -12 -19 -61 -16 -81 6 -10 11 -19 30 -21 43 -3 12 -7 35 -11 50 -5 21 -2
29 10 34 9 3 13 10 10 15 -10 17 6 28 29 20 12 -5 27 -10 32 -11z m-270 0 c-3
-5 -2 -10 4 -10 32 0 6 -158 -26 -161 -15 -2 -32 -6 -35 -9 -23 -18 -87 32
-82 64 1 10 12 37 23 61 15 33 28 46 48 51 16 3 33 7 38 9 21 7 36 5 30 -5z
m-138 -166 c18 -20 33 -39 34 -43 8 -50 6 -81 -7 -81 -8 0 -14 -4 -14 -8 0 -5
-7 -9 -15 -9 -12 0 -23 18 -31 50 -1 4 -3 9 -4 12 -1 3 -3 9 -4 14 0 5 -4 13
-8 17 -13 12 -9 84 4 84 6 0 27 -16 45 -36z m576 17 c13 -2 3 -65 -13 -79 -8
-8 -9 -11 -2 -7 6 3 12 1 12 -4 0 -6 -5 -11 -11 -11 -5 0 -8 -4 -4 -9 3 -5 0
-13 -5 -16 -6 -4 -16 -18 -21 -32 l-9 -25 -33 21 c-17 11 -30 21 -28 23 2 2
-1 13 -8 26 -24 44 -22 66 7 93 25 24 52 29 115 20z m-154 -92 c17 -45 17 -74
0 -63 -5 3 -9 1 -9 -4 0 -5 -18 -21 -40 -36 -28 -19 -47 -25 -65 -20 -14 3
-25 10 -25 15 0 5 -3 8 -7 8 -27 -4 -33 2 -23 21 8 14 8 20 0 20 -7 0 -8 6 -1
19 6 10 7 21 4 25 -3 3 1 6 9 6 9 0 18 4 20 9 2 5 20 20 41 34 50 34 74 25 96
-34z m-245 24 c53 -36 57 -42 54 -83 -3 -37 -39 -70 -77 -70 -25 0 -86 70 -89
102 -1 15 -3 33 -4 39 -3 13 37 39 61 39 8 0 33 -12 55 -27z m114 -156 c6 0
12 -4 12 -9 0 -4 6 -8 14 -8 7 0 21 -11 29 -24 15 -22 15 -25 1 -30 -9 -3 -20
-4 -25 0 -5 3 -9 2 -9 -3 0 -12 -128 -7 -143 6 -8 6 -17 8 -20 4 -4 -3 -7 3
-7 15 0 15 8 24 25 28 14 3 25 10 25 14 0 12 31 19 60 13 14 -3 31 -6 38 -6z"/>
</g>
</svg>
